<svg xmlns="http://www.w3.org/2000/svg" version="1.0" width="216" height="360" preserveAspectRatio="xMinYMin meet" style="">


<g class="currentLayer" style=""><title>Layer 1</title><g transform="translate(5,72) scale(0.025000000149011612,-0.025000000149011612) " fill="#21ce99" stroke="none" id="svg_1" class="" fill-opacity="1">
<path d="M980 2500 c-63 -69 -206 -226 -318 -347 l-202 -222 302 -276 302 -276 70 77 c39 43 76 85 83 94 10 14 -14 40 -173 186 -102 93 -196 178 -209 189 l-24 20 149 163 c82 90 151 164 153 165 2 1 98 -83 211 -187 l207 -188 26 23 c14 13 52 54 84 91 l60 67 -293 268 c-161 148 -297 271 -303 274 -5 3 -62 -51 -125 -121z" id="svg_2" fill="#ffffff"/>
<path d="M1040 2048 l-84 -90 57 -52 c241 -215 356 -322 356 -331 1 -15 -281 -320 -295 -320 -7 0 -103 82 -213 183 -111 101 -205 182 -209 180 -14 -5 -162 -172 -160 -178 2 -4 137 -128 300 -278 l297 -272 272 297 c150 164 294 321 321 349 l50 52 -288 263 c-158 145 -295 269 -304 276 -15 11 -28 0 -100 -79z" id="svg_3" fill="#21ce99"/>
</g></g></svg>
