<?xml version="1.0" standalone="no"?>
<!DOCTYPE svg PUBLIC "-//W3C//DTD SVG 20010904//EN"
 "http://www.w3.org/TR/2001/REC-SVG-20010904/DTD/svg10.dtd">
<svg version="1.0" xmlns="http://www.w3.org/2000/svg"
 width="900.000000pt" height="384.000000pt" viewBox="0 0 900.000000 384.000000"
 preserveAspectRatio="xMidYMid meet">
<metadata>
Created by potrace 1.10, written by Peter Selinger 2001-2011
</metadata>
<g transform="translate(0.000000,384.000000) scale(0.100000,-0.100000)"
fill="#ff0000" stroke="none">
<path d="M950 3520 c-527 -5 -512 -4 -615 -64 -70 -41 -135 -126 -164 -213
-38 -113 -26 -252 33 -361 39 -75 139 -154 231 -185 16 -5 200 -13 410 -16
374 -6 381 -6 420 -29 67 -39 80 -65 80 -157 0 -88 -13 -115 -70 -151 -28 -18
-64 -19 -574 -24 l-543 -5 0 -120 0 -120 523 -3 c583 -3 594 -2 715 64 97 53
158 133 188 246 50 186 -28 386 -183 474 -101 57 -107 58 -516 63 -428 7 -419
5 -464 84 -29 50 -33 135 -8 183 21 41 72 84 100 85 12 0 229 1 482 2 l460 2
3 121 c2 92 -1 123 -10 125 -7 2 -231 2 -498 -1z"/>
<path d="M2416 3520 l-699 -5 1 -113 c0 -62 3 -116 7 -120 4 -4 136 -9 293
-12 l287 -5 3 -597 2 -598 125 0 125 0 0 594 c0 386 4 597 10 601 6 3 133 6
284 5 243 0 274 1 280 16 3 8 6 64 6 124 0 78 -3 109 -12 111 -7 2 -328 2
-712 -1z"/>
</g>
<g transform="translate(0.000000,384.000000) scale(0.100000,-0.100000)"
fill="#0000ff" stroke="none">
<path d="M514 1622 c-72 -10 -144 -28 -174 -43 -57 -28 -117 -86 -137 -132
-57 -124 -53 -84 -53 -557 0 -467 -2 -448 48 -545 28 -55 110 -121 187 -151
47 -18 80 -19 560 -19 l510 0 3 109 c1 60 -1 113 -6 118 -5 5 -220 9 -478 9
-421 0 -474 2 -514 17 -29 12 -50 27 -58 45 -17 36 -18 808 0 841 6 11 20 30
32 41 20 19 36 20 523 23 l503 3 0 119 c0 89 -3 120 -12 120 -7 0 -216 1 -464
2 -248 2 -459 2 -470 0z"/>
<path d="M1740 947 c0 -739 -2 -713 57 -753 27 -18 56 -19 648 -19 l620 0 0
118 0 118 -535 2 -535 2 -5 603 -5 604 -123 1 -122 2 0 -678z"/>
</g>
<g transform="translate(0.000000,384.000000) scale(0.100000,-0.100000)"
fill="#9900ff" stroke="none">
<path d="M3150 1920 l0 -1920 2925 0 2925 0 0 1920 0 1920 -2925 0 -2925 0 0
-1920z m1209 1724 c18 -8 46 -14 61 -14 15 0 33 -7 40 -15 7 -8 20 -15 29 -15
10 0 26 -7 37 -15 10 -8 25 -15 32 -15 34 -1 163 -121 214 -199 45 -69 100
-202 118 -286 5 -22 13 -58 19 -80 60 -233 100 -684 100 -1145 0 -171 -4 -268
-28 -615 -12 -183 -46 -398 -76 -496 -8 -26 -15 -60 -15 -76 0 -16 -7 -38 -15
-49 -8 -10 -15 -29 -15 -41 0 -19 -53 -138 -83 -188 -19 -31 -100 -128 -122
-146 -11 -9 -30 -26 -43 -37 -48 -42 -186 -99 -277 -114 -185 -30 -198 -30
-390 1 -59 9 -153 40 -161 52 -3 5 -12 9 -20 9 -26 0 -105 59 -174 129 -50 50
-77 88 -112 161 -54 113 -108 272 -108 320 -1 19 -7 46 -15 60 -8 14 -14 48
-15 77 0 28 -4 63 -10 78 -5 14 -15 85 -20 158 -6 73 -15 173 -20 222 -11 117
-11 923 0 1040 5 50 14 150 20 223 6 74 15 142 20 152 6 10 10 42 10 70 0 28
7 67 15 87 8 19 15 52 15 72 1 20 7 47 15 61 8 14 14 34 15 45 0 11 7 33 15
49 8 15 15 33 15 40 0 6 21 52 46 103 36 70 62 106 113 155 36 35 80 72 96 83
57 37 160 85 183 85 13 0 33 5 45 12 53 29 377 30 446 2z m2225 2 c59 -17 138
-33 216 -46 30 -4 73 -15 95 -23 l40 -14 -2 -67 c-3 -74 -19 -104 -76 -140
-28 -17 -48 -19 -162 -18 -71 1 -146 6 -165 12 -46 13 -138 13 -197 -2 -84
-20 -131 -48 -185 -109 -53 -59 -118 -168 -118 -198 0 -9 -6 -27 -13 -41 -8
-15 -16 -55 -20 -91 -3 -35 -10 -84 -16 -109 -28 -124 -34 -259 -38 -875 -4
-554 -2 -659 12 -780 9 -77 23 -167 31 -201 8 -33 14 -78 14 -100 0 -21 7 -48
15 -58 8 -11 15 -29 15 -40 0 -49 118 -218 183 -262 81 -55 119 -64 275 -64
79 0 152 4 162 10 10 5 75 15 145 21 98 8 129 8 141 -2 12 -10 14 -38 12 -148
l-3 -136 -39 -13 c-22 -7 -67 -15 -100 -19 -34 -3 -66 -9 -72 -14 -9 -8 -36
-12 -231 -40 -50 -7 -92 -7 -140 1 -37 6 -94 15 -127 19 -32 5 -63 14 -69 20
-6 6 -20 11 -32 11 -12 0 -30 7 -41 15 -10 8 -26 15 -35 15 -8 0 -38 16 -65
35 -27 19 -57 40 -67 47 -29 20 -109 131 -123 171 -3 9 -10 17 -14 17 -5 0
-13 12 -19 28 -7 15 -23 47 -36 72 -13 25 -24 55 -24 67 -1 12 -5 24 -10 28
-6 3 -13 27 -16 53 -7 55 -31 178 -47 242 -20 80 -29 303 -34 890 -6 563 0
745 27 945 6 44 15 112 19 150 8 86 27 171 46 208 8 16 14 35 14 44 0 8 6 27
14 41 7 15 24 50 36 77 13 28 26 52 29 55 3 3 15 22 25 43 40 79 215 227 269
227 8 0 17 4 19 10 4 13 109 42 188 51 87 10 231 2 294 -15z m1152 -52 c12 -3
30 -24 43 -49 l21 -43 -2 -1653 -3 -1654 -22 -31 c-25 -34 -47 -41 -188 -53
-46 -4 -85 -3 -92 2 -10 8 -13 367 -13 1737 0 951 3 1736 7 1745 5 16 18 17
117 10 61 -3 120 -9 132 -11z m1116 -17 c20 -25 22 -40 9 -65 -5 -9 -19 -42
-31 -72 -29 -75 -40 -100 -56 -133 -8 -16 -14 -38 -14 -50 0 -12 -7 -31 -15
-41 -8 -11 -15 -26 -15 -33 0 -7 -13 -42 -30 -76 -16 -35 -30 -67 -30 -71 0
-9 -25 -68 -46 -109 -8 -16 -14 -35 -14 -42 0 -7 -13 -40 -30 -73 -16 -34 -30
-70 -30 -80 0 -11 -7 -25 -15 -32 -8 -7 -15 -22 -15 -34 0 -12 -7 -31 -15 -42
-8 -10 -15 -25 -15 -32 0 -13 -7 -32 -45 -117 -7 -16 -23 -55 -35 -85 -12 -30
-26 -59 -31 -65 -5 -5 -9 -18 -9 -28 0 -10 -6 -31 -13 -45 -28 -55 -71 -159
-82 -199 -4 -13 -11 -23 -16 -23 -5 0 -9 -10 -9 -22 0 -13 -7 -36 -16 -53 -22
-40 -23 -113 -2 -156 9 -19 23 -50 31 -69 9 -19 30 -65 46 -103 17 -37 31 -71
31 -76 0 -5 6 -22 14 -38 8 -15 21 -44 30 -63 53 -122 70 -159 87 -193 10 -21
19 -45 19 -55 0 -9 7 -26 15 -36 8 -11 15 -27 15 -37 0 -9 7 -22 15 -29 8 -7
15 -19 15 -27 0 -8 14 -41 30 -75 17 -33 30 -68 30 -78 0 -10 7 -23 15 -30 8
-7 15 -18 15 -25 0 -8 6 -26 14 -42 12 -26 21 -46 60 -135 14 -32 30 -71 63
-145 9 -21 22 -51 29 -68 6 -16 20 -48 30 -70 18 -41 37 -85 62 -145 8 -19 21
-47 29 -62 7 -14 13 -40 13 -58 l0 -32 -102 5 c-183 10 -212 17 -263 67 -25
24 -45 50 -45 57 0 7 -4 13 -10 13 -5 0 -12 11 -16 25 -3 13 -12 29 -20 36 -8
6 -14 22 -14 34 0 12 -7 28 -15 35 -8 7 -15 18 -15 25 0 8 -6 26 -14 42 -8 15
-22 48 -31 73 -10 25 -23 57 -31 72 -8 14 -14 35 -14 46 0 11 -7 25 -15 32 -8
7 -15 23 -15 36 0 12 -4 25 -9 28 -4 3 -19 34 -31 68 -13 35 -29 72 -37 83 -7
11 -13 27 -13 36 0 10 -6 30 -14 46 -8 15 -21 44 -29 63 -8 19 -22 51 -30 70
-9 19 -23 51 -31 72 -9 20 -16 45 -16 57 0 12 -4 21 -10 21 -5 0 -13 12 -16
27 -4 16 -13 37 -20 48 -8 11 -14 27 -14 36 0 10 -8 32 -17 51 -9 18 -22 45
-30 60 -7 14 -13 35 -13 46 0 11 -7 25 -15 32 -8 7 -15 18 -15 26 0 7 -7 30
-16 51 -18 42 -36 82 -60 140 -9 21 -23 51 -30 66 -18 37 -18 62 1 77 8 7 15
21 15 32 0 11 6 32 13 46 8 15 21 43 29 62 27 63 50 115 64 143 8 16 14 35 14
42 0 7 14 40 30 73 17 34 30 66 30 72 0 7 6 24 13 38 18 35 40 86 62 142 10
25 23 59 31 75 7 17 15 37 18 45 3 8 10 22 14 30 26 45 42 83 42 97 0 8 7 27
14 41 8 15 22 45 31 67 18 44 40 94 61 140 7 17 16 42 20 58 3 15 10 27 15 27
5 0 9 7 9 16 0 15 11 43 45 119 8 17 16 40 20 53 3 12 11 22 16 22 5 0 9 9 9
21 0 11 6 33 13 47 8 15 21 42 30 60 9 19 17 40 17 48 0 16 28 64 45 77 5 4
66 5 135 2 112 -6 127 -9 142 -28z"/>
<path d="M4070 3354 c-36 -8 -79 -21 -97 -29 -17 -8 -33 -15 -36 -15 -10 0
-72 -64 -101 -103 -34 -47 -86 -151 -86 -172 0 -10 -6 -31 -14 -48 -19 -46
-38 -123 -46 -192 -4 -33 -13 -80 -18 -105 -23 -97 -36 -353 -39 -770 -3 -278
0 -460 7 -505 6 -38 13 -128 16 -200 4 -71 12 -152 20 -179 8 -27 14 -63 14
-80 0 -37 28 -159 47 -203 7 -17 13 -35 13 -41 0 -24 112 -210 136 -225 7 -4
19 -14 27 -21 7 -8 40 -28 72 -45 54 -29 65 -31 160 -31 94 0 107 2 158 30 61
33 131 92 152 130 53 97 95 215 115 323 5 26 13 62 19 80 68 220 68 1587 0
1852 -6 22 -14 60 -19 85 -12 61 -33 130 -48 157 -6 12 -12 28 -12 37 0 24
-70 135 -112 177 -37 37 -81 62 -153 87 -53 18 -108 20 -175 6z"/>
</g>
</svg>
