<?xml version="1.0" encoding="UTF-8"?>
<svg xmlns="http://www.w3.org/2000/svg" xmlns:xlink="http://www.w3.org/1999/xlink" width="117pt" height="50pt" viewBox="0 0 117 50" version="1.1">
<g id="surface1">
<path style=" stroke:none;fill-rule:nonzero;fill:rgb(100%,0%,0%);fill-opacity:1;" d="M 12.351562 4.167969 C 5.5 4.230469 5.695312 4.21875 4.355469 5 C 3.445312 5.535156 2.601562 6.640625 2.222656 7.773438 C 1.730469 9.246094 1.886719 11.054688 2.652344 12.472656 C 3.160156 13.449219 4.460938 14.480469 5.65625 14.882812 C 5.863281 14.949219 8.253906 15.050781 10.984375 15.089844 C 15.847656 15.167969 15.9375 15.167969 16.445312 15.46875 C 17.316406 15.976562 17.484375 16.316406 17.484375 17.511719 C 17.484375 18.660156 17.316406 19.011719 16.574219 19.480469 C 16.210938 19.714844 15.742188 19.726562 9.113281 19.792969 L 2.054688 19.855469 L 2.054688 22.980469 L 8.851562 23.019531 C 16.433594 23.058594 16.574219 23.046875 18.148438 22.1875 C 19.410156 21.496094 20.203125 20.457031 20.59375 18.984375 C 21.242188 16.5625 20.226562 13.957031 18.214844 12.8125 C 16.898438 12.070312 16.820312 12.058594 11.503906 11.992188 C 5.941406 11.902344 6.058594 11.925781 5.472656 10.898438 C 5.097656 10.246094 5.042969 9.140625 5.367188 8.515625 C 5.640625 7.980469 6.304688 7.421875 6.667969 7.410156 C 6.824219 7.410156 9.644531 7.394531 12.933594 7.382812 L 18.914062 7.355469 L 18.953125 5.78125 C 18.980469 4.582031 18.941406 4.179688 18.824219 4.152344 C 18.734375 4.128906 15.820312 4.128906 12.351562 4.167969 Z M 12.351562 4.167969 "/>
<path style=" stroke:none;fill-rule:nonzero;fill:rgb(100%,0%,0%);fill-opacity:1;" d="M 31.40625 4.167969 L 22.320312 4.230469 L 22.335938 5.703125 C 22.335938 6.511719 22.371094 7.214844 22.425781 7.265625 C 22.476562 7.316406 24.191406 7.382812 26.234375 7.421875 L 29.964844 7.488281 L 30.003906 15.261719 L 30.03125 23.046875 L 33.28125 23.046875 L 33.28125 15.3125 C 33.28125 10.285156 33.332031 7.539062 33.410156 7.488281 C 33.488281 7.449219 35.140625 7.410156 37.101562 7.421875 C 40.261719 7.421875 40.664062 7.410156 40.742188 7.214844 C 40.78125 7.109375 40.820312 6.378906 40.820312 5.597656 C 40.820312 4.582031 40.78125 4.179688 40.664062 4.152344 C 40.574219 4.128906 36.398438 4.128906 31.40625 4.167969 Z M 31.40625 4.167969 "/>
<path style=" stroke:none;fill-rule:nonzero;fill:rgb(0%,0%,100%);fill-opacity:1;" d="M 6.683594 28.878906 C 5.746094 29.011719 4.808594 29.246094 4.421875 29.441406 C 3.679688 29.804688 2.898438 30.558594 2.640625 31.160156 C 1.898438 32.773438 1.949219 32.253906 1.949219 38.410156 C 1.949219 44.492188 1.925781 44.246094 2.574219 45.507812 C 2.9375 46.222656 4.003906 47.082031 5.003906 47.472656 C 5.617188 47.707031 6.046875 47.722656 12.285156 47.722656 L 18.914062 47.722656 L 18.953125 46.300781 C 18.96875 45.519531 18.941406 44.832031 18.875 44.765625 C 18.8125 44.699219 16.015625 44.648438 12.660156 44.648438 C 7.1875 44.648438 6.5 44.621094 5.980469 44.425781 C 5.601562 44.269531 5.328125 44.074219 5.226562 43.839844 C 5.003906 43.371094 4.992188 33.320312 5.226562 32.890625 C 5.304688 32.746094 5.484375 32.5 5.640625 32.355469 C 5.902344 32.109375 6.109375 32.097656 12.441406 32.058594 L 18.980469 32.019531 L 18.980469 30.46875 C 18.980469 29.308594 18.941406 28.90625 18.824219 28.90625 C 18.734375 28.90625 16.015625 28.894531 12.792969 28.878906 C 9.566406 28.855469 6.824219 28.855469 6.683594 28.878906 Z M 6.683594 28.878906 "/>
<path style=" stroke:none;fill-rule:nonzero;fill:rgb(0%,0%,100%);fill-opacity:1;" d="M 22.621094 37.667969 C 22.621094 47.292969 22.59375 46.953125 23.359375 47.472656 C 23.710938 47.707031 24.089844 47.722656 31.785156 47.722656 L 39.84375 47.722656 L 39.84375 44.648438 L 32.890625 44.621094 L 25.933594 44.597656 L 25.871094 36.746094 L 25.804688 28.878906 L 24.207031 28.867188 L 22.621094 28.839844 Z M 22.621094 37.667969 "/>
<path style=" stroke:none;fill-rule:nonzero;fill:rgb(60%,0%,100%);fill-opacity:1;" d="M 40.949219 25 L 40.949219 50 L 117 50 L 117 0 L 40.949219 0 Z M 56.667969 2.550781 C 56.902344 2.65625 57.265625 2.734375 57.460938 2.734375 C 57.65625 2.734375 57.890625 2.824219 57.980469 2.929688 C 58.070312 3.035156 58.238281 3.125 58.355469 3.125 C 58.488281 3.125 58.695312 3.214844 58.839844 3.320312 C 58.96875 3.425781 59.164062 3.515625 59.253906 3.515625 C 59.695312 3.527344 61.371094 5.089844 62.035156 6.105469 C 62.621094 7.003906 63.335938 8.738281 63.570312 9.832031 C 63.636719 10.117188 63.738281 10.585938 63.816406 10.871094 C 64.597656 13.90625 65.117188 19.777344 65.117188 25.78125 C 65.117188 28.007812 65.066406 29.269531 64.753906 33.789062 C 64.597656 36.171875 64.15625 38.972656 63.765625 40.246094 C 63.660156 40.585938 63.570312 41.027344 63.570312 41.238281 C 63.570312 41.445312 63.480469 41.730469 63.375 41.875 C 63.269531 42.003906 63.179688 42.253906 63.179688 42.410156 C 63.179688 42.65625 62.492188 44.207031 62.101562 44.855469 C 61.855469 45.261719 60.800781 46.523438 60.515625 46.757812 C 60.371094 46.875 60.125 47.097656 59.957031 47.238281 C 59.332031 47.785156 57.539062 48.527344 56.355469 48.722656 C 53.949219 49.113281 53.78125 49.113281 51.285156 48.710938 C 50.519531 48.59375 49.296875 48.191406 49.191406 48.035156 C 49.152344 47.96875 49.035156 47.917969 48.933594 47.917969 C 48.59375 47.917969 47.566406 47.148438 46.671875 46.238281 C 46.019531 45.585938 45.667969 45.089844 45.214844 44.140625 C 44.511719 42.667969 43.808594 40.597656 43.808594 39.972656 C 43.796875 39.726562 43.71875 39.375 43.613281 39.191406 C 43.511719 39.011719 43.433594 38.566406 43.421875 38.191406 C 43.421875 37.824219 43.367188 37.371094 43.289062 37.175781 C 43.226562 36.992188 43.09375 36.066406 43.03125 35.117188 C 42.953125 34.167969 42.835938 32.863281 42.769531 32.226562 C 42.628906 30.703125 42.628906 20.207031 42.769531 18.683594 C 42.835938 18.035156 42.953125 16.730469 43.03125 15.78125 C 43.109375 14.816406 43.226562 13.933594 43.289062 13.800781 C 43.367188 13.671875 43.421875 13.253906 43.421875 12.890625 C 43.421875 12.527344 43.511719 12.019531 43.613281 11.757812 C 43.71875 11.511719 43.808594 11.082031 43.808594 10.820312 C 43.824219 10.558594 43.902344 10.207031 44.003906 10.027344 C 44.109375 9.84375 44.1875 9.582031 44.199219 9.441406 C 44.199219 9.296875 44.289062 9.011719 44.394531 8.800781 C 44.5 8.605469 44.589844 8.371094 44.589844 8.28125 C 44.589844 8.203125 44.863281 7.605469 45.1875 6.941406 C 45.65625 6.027344 45.992188 5.558594 46.65625 4.921875 C 47.125 4.464844 47.695312 3.984375 47.90625 3.839844 C 48.644531 3.359375 49.984375 2.734375 50.285156 2.734375 C 50.453125 2.734375 50.714844 2.667969 50.867188 2.578125 C 51.558594 2.199219 55.769531 2.1875 56.667969 2.550781 Z M 85.59375 2.527344 C 86.359375 2.746094 87.386719 2.957031 88.398438 3.125 C 88.789062 3.175781 89.347656 3.320312 89.636719 3.425781 L 90.15625 3.605469 L 90.128906 4.480469 C 90.089844 5.441406 89.882812 5.832031 89.140625 6.300781 C 88.777344 6.523438 88.515625 6.550781 87.035156 6.535156 C 86.113281 6.523438 85.136719 6.457031 84.890625 6.378906 C 84.292969 6.210938 83.097656 6.210938 82.328125 6.40625 C 81.238281 6.667969 80.625 7.03125 79.925781 7.824219 C 79.234375 8.59375 78.390625 10.011719 78.390625 10.402344 C 78.390625 10.519531 78.3125 10.753906 78.222656 10.9375 C 78.117188 11.132812 78.011719 11.652344 77.960938 12.121094 C 77.921875 12.578125 77.832031 13.214844 77.753906 13.542969 C 77.390625 15.15625 77.3125 16.914062 77.257812 24.933594 C 77.207031 32.148438 77.234375 33.515625 77.414062 35.089844 C 77.53125 36.09375 77.714844 37.265625 77.816406 37.707031 C 77.921875 38.136719 78 38.722656 78 39.011719 C 78 39.285156 78.089844 39.636719 78.195312 39.765625 C 78.300781 39.910156 78.390625 40.144531 78.390625 40.285156 C 78.390625 40.925781 79.925781 43.125 80.769531 43.699219 C 81.820312 44.414062 82.316406 44.53125 84.34375 44.53125 C 85.371094 44.53125 86.320312 44.480469 86.449219 44.402344 C 86.578125 44.335938 87.425781 44.207031 88.335938 44.128906 C 89.609375 44.023438 90.011719 44.023438 90.167969 44.152344 C 90.324219 44.285156 90.351562 44.648438 90.324219 46.082031 L 90.285156 47.851562 L 89.777344 48.019531 C 89.492188 48.113281 88.90625 48.214844 88.476562 48.269531 C 88.035156 48.308594 87.621094 48.386719 87.542969 48.449219 C 87.425781 48.554688 87.074219 48.605469 84.539062 48.972656 C 83.890625 49.0625 83.34375 49.0625 82.71875 48.957031 C 82.238281 48.878906 81.496094 48.761719 81.066406 48.710938 C 80.652344 48.644531 80.25 48.527344 80.171875 48.449219 C 80.09375 48.371094 79.910156 48.308594 79.753906 48.308594 C 79.597656 48.308594 79.363281 48.214844 79.222656 48.113281 C 79.09375 48.007812 78.882812 47.917969 78.765625 47.917969 C 78.664062 47.917969 78.273438 47.707031 77.921875 47.460938 C 77.570312 47.214844 77.179688 46.941406 77.050781 46.847656 C 76.675781 46.589844 75.632812 45.144531 75.453125 44.621094 C 75.414062 44.503906 75.320312 44.402344 75.269531 44.402344 C 75.203125 44.402344 75.101562 44.246094 75.023438 44.035156 C 74.933594 43.839844 74.722656 43.425781 74.554688 43.097656 C 74.386719 42.773438 74.242188 42.382812 74.242188 42.226562 C 74.230469 42.070312 74.179688 41.914062 74.113281 41.863281 C 74.035156 41.824219 73.945312 41.511719 73.90625 41.171875 C 73.8125 40.457031 73.503906 38.855469 73.292969 38.019531 C 73.035156 36.980469 72.917969 34.074219 72.851562 26.433594 C 72.773438 19.101562 72.851562 16.730469 73.203125 14.128906 C 73.28125 13.554688 73.398438 12.667969 73.449219 12.175781 C 73.554688 11.054688 73.800781 9.949219 74.046875 9.464844 C 74.152344 9.257812 74.230469 9.011719 74.230469 8.894531 C 74.230469 8.789062 74.308594 8.542969 74.410156 8.359375 C 74.503906 8.164062 74.722656 7.707031 74.878906 7.355469 C 75.050781 6.992188 75.21875 6.679688 75.257812 6.640625 C 75.296875 6.601562 75.453125 6.355469 75.582031 6.082031 C 76.101562 5.050781 78.378906 3.125 79.078125 3.125 C 79.183594 3.125 79.300781 3.074219 79.324219 2.996094 C 79.378906 2.824219 80.742188 2.449219 81.769531 2.332031 C 82.902344 2.199219 84.773438 2.304688 85.59375 2.527344 Z M 100.566406 3.203125 C 100.722656 3.242188 100.957031 3.515625 101.128906 3.839844 L 101.398438 4.402344 L 101.375 25.925781 L 101.335938 47.460938 L 101.050781 47.863281 C 100.722656 48.308594 100.4375 48.398438 98.605469 48.554688 C 98.007812 48.605469 97.5 48.59375 97.410156 48.527344 C 97.277344 48.425781 97.238281 43.75 97.238281 25.910156 C 97.238281 13.527344 97.277344 3.308594 97.332031 3.191406 C 97.394531 2.980469 97.566406 2.96875 98.851562 3.058594 C 99.644531 3.097656 100.410156 3.175781 100.566406 3.203125 Z M 115.074219 3.425781 C 115.335938 3.75 115.363281 3.945312 115.191406 4.269531 C 115.128906 4.386719 114.945312 4.816406 114.789062 5.207031 C 114.414062 6.183594 114.269531 6.511719 114.0625 6.941406 C 113.957031 7.148438 113.878906 7.433594 113.878906 7.589844 C 113.878906 7.746094 113.789062 7.996094 113.683594 8.125 C 113.582031 8.269531 113.488281 8.464844 113.488281 8.554688 C 113.488281 8.644531 113.320312 9.101562 113.101562 9.542969 C 112.890625 10 112.710938 10.417969 112.710938 10.46875 C 112.710938 10.585938 112.386719 11.355469 112.113281 11.886719 C 112.007812 12.097656 111.929688 12.34375 111.929688 12.433594 C 111.929688 12.527344 111.761719 12.957031 111.539062 13.386719 C 111.332031 13.828125 111.148438 14.296875 111.148438 14.425781 C 111.148438 14.570312 111.058594 14.753906 110.953125 14.84375 C 110.851562 14.933594 110.761719 15.128906 110.761719 15.285156 C 110.761719 15.441406 110.667969 15.691406 110.566406 15.832031 C 110.460938 15.964844 110.371094 16.160156 110.371094 16.25 C 110.371094 16.417969 110.277344 16.667969 109.785156 17.773438 C 109.695312 17.980469 109.484375 18.488281 109.328125 18.878906 C 109.175781 19.269531 108.992188 19.648438 108.925781 19.726562 C 108.863281 19.792969 108.808594 19.960938 108.808594 20.089844 C 108.808594 20.222656 108.730469 20.496094 108.640625 20.675781 C 108.277344 21.394531 107.71875 22.746094 107.574219 23.269531 C 107.523438 23.4375 107.433594 23.566406 107.367188 23.566406 C 107.300781 23.566406 107.25 23.699219 107.25 23.855469 C 107.25 24.023438 107.160156 24.324219 107.042969 24.542969 C 106.757812 25.066406 106.742188 26.015625 107.015625 26.574219 C 107.132812 26.824219 107.316406 27.226562 107.417969 27.472656 C 107.535156 27.722656 107.808594 28.320312 108.015625 28.816406 C 108.238281 29.296875 108.421875 29.738281 108.421875 29.804688 C 108.421875 29.871094 108.496094 30.089844 108.601562 30.300781 C 108.707031 30.496094 108.875 30.871094 108.992188 31.121094 C 109.679688 32.707031 109.902344 33.191406 110.121094 33.632812 C 110.253906 33.90625 110.371094 34.21875 110.371094 34.347656 C 110.371094 34.464844 110.460938 34.6875 110.566406 34.816406 C 110.667969 34.960938 110.761719 35.167969 110.761719 35.300781 C 110.761719 35.417969 110.851562 35.585938 110.953125 35.675781 C 111.058594 35.769531 111.148438 35.925781 111.148438 36.027344 C 111.148438 36.132812 111.332031 36.5625 111.539062 37.003906 C 111.761719 37.433594 111.929688 37.890625 111.929688 38.019531 C 111.929688 38.152344 112.019531 38.320312 112.125 38.410156 C 112.230469 38.503906 112.320312 38.644531 112.320312 38.738281 C 112.320312 38.839844 112.398438 39.074219 112.503906 39.285156 C 112.65625 39.621094 112.773438 39.882812 113.28125 41.042969 C 113.464844 41.457031 113.671875 41.964844 114.101562 42.929688 C 114.21875 43.203125 114.386719 43.59375 114.476562 43.816406 C 114.554688 44.023438 114.738281 44.441406 114.867188 44.726562 C 115.101562 45.261719 115.347656 45.832031 115.675781 46.613281 C 115.777344 46.863281 115.945312 47.226562 116.050781 47.421875 C 116.140625 47.605469 116.21875 47.941406 116.21875 48.175781 L 116.21875 48.59375 L 114.894531 48.527344 C 112.515625 48.398438 112.136719 48.308594 111.476562 47.65625 C 111.148438 47.34375 110.890625 47.003906 110.890625 46.914062 C 110.890625 46.824219 110.839844 46.746094 110.761719 46.746094 C 110.695312 46.746094 110.605469 46.601562 110.550781 46.417969 C 110.511719 46.25 110.394531 46.042969 110.292969 45.949219 C 110.1875 45.871094 110.109375 45.664062 110.109375 45.507812 C 110.109375 45.351562 110.019531 45.144531 109.914062 45.050781 C 109.8125 44.960938 109.71875 44.816406 109.71875 44.726562 C 109.71875 44.621094 109.640625 44.386719 109.539062 44.179688 C 109.433594 43.984375 109.253906 43.554688 109.136719 43.230469 C 109.003906 42.902344 108.835938 42.488281 108.730469 42.292969 C 108.628906 42.109375 108.550781 41.835938 108.550781 41.691406 C 108.550781 41.550781 108.460938 41.367188 108.355469 41.277344 C 108.25 41.183594 108.160156 40.976562 108.160156 40.808594 C 108.160156 40.652344 108.109375 40.480469 108.042969 40.441406 C 107.992188 40.402344 107.796875 40 107.640625 39.558594 C 107.472656 39.101562 107.261719 38.621094 107.160156 38.476562 C 107.066406 38.332031 106.988281 38.125 106.988281 38.007812 C 106.988281 37.878906 106.910156 37.617188 106.808594 37.410156 C 106.703125 37.214844 106.535156 36.835938 106.429688 36.589844 C 106.328125 36.339844 106.144531 35.925781 106.039062 35.675781 C 105.925781 35.429688 105.742188 35.011719 105.636719 34.738281 C 105.519531 34.480469 105.429688 34.152344 105.429688 33.996094 C 105.429688 33.839844 105.378906 33.722656 105.300781 33.722656 C 105.234375 33.722656 105.132812 33.566406 105.09375 33.371094 C 105.039062 33.164062 104.921875 32.890625 104.832031 32.746094 C 104.726562 32.605469 104.648438 32.394531 104.648438 32.277344 C 104.648438 32.148438 104.546875 31.863281 104.429688 31.613281 C 104.3125 31.378906 104.144531 31.027344 104.039062 30.832031 C 103.949219 30.652344 103.871094 30.378906 103.871094 30.234375 C 103.871094 30.089844 103.777344 29.910156 103.675781 29.816406 C 103.570312 29.726562 103.480469 29.582031 103.480469 29.480469 C 103.480469 29.386719 103.390625 29.089844 103.273438 28.816406 C 103.039062 28.269531 102.804688 27.746094 102.492188 26.992188 C 102.375 26.71875 102.191406 26.328125 102.101562 26.132812 C 101.867188 25.652344 101.867188 25.324219 102.113281 25.128906 C 102.21875 25.039062 102.308594 24.855469 102.308594 24.714844 C 102.308594 24.570312 102.386719 24.296875 102.480469 24.113281 C 102.582031 23.917969 102.753906 23.554688 102.855469 23.308594 C 103.207031 22.488281 103.507812 21.808594 103.6875 21.445312 C 103.792969 21.238281 103.871094 20.988281 103.871094 20.898438 C 103.871094 20.808594 104.050781 20.378906 104.261719 19.949219 C 104.480469 19.503906 104.648438 19.089844 104.648438 19.011719 C 104.648438 18.917969 104.726562 18.699219 104.820312 18.515625 C 105.054688 18.058594 105.339844 17.394531 105.625 16.667969 C 105.753906 16.339844 105.925781 15.898438 106.027344 15.691406 C 106.117188 15.46875 106.222656 15.207031 106.261719 15.105469 C 106.300781 15 106.390625 14.816406 106.445312 14.714844 C 106.78125 14.128906 106.988281 13.632812 106.988281 13.449219 C 106.988281 13.347656 107.082031 13.097656 107.171875 12.917969 C 107.277344 12.722656 107.457031 12.332031 107.574219 12.042969 C 107.808594 11.472656 108.09375 10.820312 108.367188 10.222656 C 108.460938 10 108.574219 9.675781 108.628906 9.464844 C 108.667969 9.269531 108.757812 9.113281 108.824219 9.113281 C 108.886719 9.113281 108.941406 9.023438 108.941406 8.90625 C 108.941406 8.710938 109.082031 8.347656 109.523438 7.355469 C 109.628906 7.136719 109.734375 6.835938 109.785156 6.667969 C 109.824219 6.511719 109.929688 6.378906 109.992188 6.378906 C 110.058594 6.378906 110.109375 6.261719 110.109375 6.105469 C 110.109375 5.964844 110.1875 5.675781 110.277344 5.496094 C 110.382812 5.300781 110.550781 4.949219 110.667969 4.714844 C 110.785156 4.464844 110.890625 4.191406 110.890625 4.089844 C 110.890625 3.878906 111.253906 3.253906 111.476562 3.085938 C 111.539062 3.035156 112.332031 3.019531 113.230469 3.058594 C 114.6875 3.136719 114.882812 3.175781 115.074219 3.425781 Z M 115.074219 3.425781 "/>
<path style=" stroke:none;fill-rule:nonzero;fill:rgb(60%,0%,100%);fill-opacity:1;" d="M 52.910156 6.328125 C 52.441406 6.433594 51.882812 6.601562 51.648438 6.707031 C 51.429688 6.808594 51.21875 6.902344 51.179688 6.902344 C 51.050781 6.902344 50.246094 7.734375 49.867188 8.242188 C 49.425781 8.855469 48.75 10.207031 48.75 10.480469 C 48.75 10.613281 48.671875 10.886719 48.566406 11.105469 C 48.320312 11.707031 48.074219 12.707031 47.96875 13.605469 C 47.917969 14.035156 47.800781 14.648438 47.734375 14.972656 C 47.4375 16.238281 47.269531 19.570312 47.230469 25 C 47.191406 28.621094 47.230469 30.988281 47.320312 31.574219 C 47.398438 32.070312 47.488281 33.242188 47.527344 34.179688 C 47.578125 35.105469 47.683594 36.160156 47.789062 36.511719 C 47.890625 36.863281 47.96875 37.332031 47.96875 37.550781 C 47.96875 38.035156 48.335938 39.621094 48.582031 40.195312 C 48.671875 40.417969 48.75 40.652344 48.75 40.730469 C 48.75 41.042969 50.207031 43.464844 50.519531 43.660156 C 50.609375 43.710938 50.765625 43.839844 50.867188 43.933594 C 50.960938 44.035156 51.390625 44.296875 51.804688 44.519531 C 52.507812 44.894531 52.648438 44.921875 53.886719 44.921875 C 55.105469 44.921875 55.277344 44.894531 55.9375 44.53125 C 56.730469 44.101562 57.640625 43.332031 57.914062 42.839844 C 58.605469 41.574219 59.148438 40.039062 59.410156 38.632812 C 59.476562 38.292969 59.578125 37.824219 59.65625 37.589844 C 60.539062 34.726562 60.539062 16.925781 59.65625 13.476562 C 59.578125 13.191406 59.476562 12.695312 59.410156 12.371094 C 59.253906 11.574219 58.980469 10.675781 58.785156 10.324219 C 58.707031 10.167969 58.628906 9.960938 58.628906 9.84375 C 58.628906 9.53125 57.71875 8.085938 57.175781 7.539062 C 56.691406 7.058594 56.121094 6.730469 55.183594 6.40625 C 54.496094 6.171875 53.78125 6.144531 52.910156 6.328125 Z M 52.910156 6.328125 "/>
</g>
</svg>
